<?xml version="1.0" encoding="UTF-8" standalone="no"?>
<svg
   xmlns:dc="http://purl.org/dc/elements/1.1/"
   xmlns:cc="http://creativecommons.org/ns#"
   xmlns:rdf="http://www.w3.org/1999/02/22-rdf-syntax-ns#"
   xmlns:svg="http://www.w3.org/2000/svg"
   xmlns="http://www.w3.org/2000/svg"
   xmlns:sodipodi="http://sodipodi.sourceforge.net/DTD/sodipodi-0.dtd"
   xmlns:inkscape="http://www.inkscape.org/namespaces/inkscape"
   width="16"
   height="16"
   fill="currentColor"
   class="bi bi-graph-up"
   viewBox="0 0 16 16"
   version="1.1"
   id="svg5192"
   sodipodi:docname="graph-up.svg"
   inkscape:version="0.92.4 (5da689c313, 2019-01-14)">
  <metadata
     id="metadata5198">
    <rdf:RDF>
      <cc:Work
         rdf:about="">
        <dc:format>image/svg+xml</dc:format>
        <dc:type
           rdf:resource="http://purl.org/dc/dcmitype/StillImage" />
      </cc:Work>
    </rdf:RDF>
  </metadata>
  <defs
     id="defs5196" />
  <sodipodi:namedview
     pagecolor="#ffffff"
     bordercolor="#666666"
     borderopacity="1"
     objecttolerance="10"
     gridtolerance="10"
     guidetolerance="10"
     inkscape:pageopacity="0"
     inkscape:pageshadow="2"
     inkscape:window-width="1318"
     inkscape:window-height="736"
     id="namedview5194"
     showgrid="false"
     inkscape:zoom="7.8033647"
     inkscape:cx="4.228945"
     inkscape:cy="20.897804"
     inkscape:window-x="24"
     inkscape:window-y="16"
     inkscape:window-maximized="1"
     inkscape:current-layer="svg5192" />
  <path
     fill-rule="evenodd"
     d="M0 0h1v15h15v1H0V0zm10 3.5a.5.5 0 0 1 .5-.5h4a.5.5 0 0 1 .5.5v4a.5.5 0 0 1-1 0V4.9l-3.613 4.417a.5.5 0 0 1-.74.037L7.06 6.767l-3.656 5.027a.5.5 0 0 1-.808-.588l4-5.5a.5.5 0 0 1 .758-.06l2.609 2.61L13.445 4H10.5a.5.5 0 0 1-.5-.5z"
     id="path5190" />
  <text
     xml:space="preserve"
     style="font-style:normal;font-weight:normal;font-size:25px;line-height:1.25;font-family:sans-serif;text-align:end;letter-spacing:0px;word-spacing:0px;text-anchor:end;fill:#000000;fill-opacity:1;stroke:none"
     x="9"
     y="4"
     id="text5202"><tspan
       sodipodi:role="line"
       id="tspan5200"
       x="9"
       y="4"
       style="font-style:normal;font-variant:normal;font-weight:normal;font-stretch:normal;font-size:4px;font-family:sans-serif;-inkscape-font-specification:'sans-serif, Normal';font-variant-ligatures:normal;font-variant-caps:normal;font-variant-numeric:normal;font-feature-settings:normal;text-align:end;writing-mode:lr-tb;text-anchor:end">CSV</tspan></text>
</svg>
